<svg xmlns="http://www.w3.org/2000/svg" viewBox="0 0 128 128" fill="none">
  <rect width="128" height="128" rx="32" fill="#FFF6EA"/>
  <circle cx="43" cy="41" r="14" fill="#F4B16D"/>
  <circle cx="85" cy="41" r="14" fill="#F4B16D"/>
  <circle cx="36" cy="72" r="10" fill="#F4B16D"/>
  <circle cx="59" cy="87" r="11" fill="#F4B16D"/>
  <circle cx="83" cy="87" r="11" fill="#F4B16D"/>
  <circle cx="92" cy="72" r="10" fill="#F4B16D"/>
  <path d="M64 59c-7.8 0-15.5 5.3-15.5 14.9 0 10.6 8 19.1 15.5 19.1s15.5-8.5 15.5-19.1C79.5 64.3 71.8 59 64 59Z" fill="#C9773B"/>
  <path d="M55.5 68.5c0 1.9-1.4 3.4-3.2 3.4-1.7 0-3.1-1.5-3.1-3.4 0-1.8 1.4-3.3 3.1-3.3 1.8 0 3.2 1.5 3.2 3.3Z" fill="#FFF"/>
  <path d="M78.8 68.5c0 1.9-1.4 3.4-3.2 3.4-1.7 0-3.1-1.5-3.1-3.4 0-1.8 1.4-3.3 3.1-3.3 1.8 0 3.2 1.5 3.2 3.3Z" fill="#FFF"/>
  <path d="M63.8 74.2c-2 0-3.8 1.2-4.7 3l4.7 4.3 4.7-4.3c-.9-1.8-2.7-3-4.7-3Z" fill="#FFF8EF"/>
</svg>
