<svg xmlns="http://www.w3.org/2000/svg" viewBox="0 0 1280 720" fill="none">
  <rect width="1280" height="720" rx="36" fill="#FFF4E7"/>
  <rect x="28" y="28" width="1224" height="664" rx="30" fill="#FFFBF5" stroke="#E9D0AF" stroke-width="2"/>
  <rect x="64" y="64" width="1152" height="86" rx="24" fill="#FFF0DA"/>
  <rect x="64" y="174" width="1152" height="112" rx="26" fill="#FFF8EE"/>
  <rect x="64" y="310" width="690" height="316" rx="28" fill="#FFF6EA"/>
  <rect x="784" y="310" width="432" height="316" rx="28" fill="#FFF6EA"/>
  <circle cx="408" cy="454" r="110" fill="#FFD59F"/>
  <circle cx="368" cy="424" r="18" fill="#FFF"/>
  <circle cx="448" cy="424" r="18" fill="#FFF"/>
  <path d="M405 446c-16 0-31 10-37 25l37 34 37-34c-6-15-21-25-37-25Z" fill="#C9773B"/>
  <rect x="126" y="541" width="560" height="52" rx="18" fill="#EFC58E"/>
  <rect x="817" y="350" width="366" height="78" rx="22" fill="#FFFDF8" stroke="#E4CCAE" stroke-width="2"/>
  <rect x="817" y="443" width="366" height="78" rx="22" fill="#F0FBF4" stroke="#C6E2D3" stroke-width="2"/>
  <rect x="817" y="536" width="366" height="78" rx="22" fill="#FFFDF8" stroke="#E4CCAE" stroke-width="2"/>
  <rect x="92" y="198" width="196" height="64" rx="18" fill="#FFFDF8" stroke="#E4CCAE" stroke-width="2"/>
  <rect x="314" y="198" width="196" height="64" rx="18" fill="#FFFDF8" stroke="#E4CCAE" stroke-width="2"/>
  <rect x="536" y="198" width="196" height="64" rx="18" fill="#FFFDF8" stroke="#E4CCAE" stroke-width="2"/>
  <rect x="758" y="198" width="196" height="64" rx="18" fill="#FFFDF8" stroke="#E4CCAE" stroke-width="2"/>
  <rect x="980" y="198" width="196" height="64" rx="18" fill="#FFFDF8" stroke="#E4CCAE" stroke-width="2"/>
  <text x="92" y="108" fill="#6A4328" font-size="48" font-family="KaiTi, STKaiti, serif">猫咪咖啡馆</text>
  <text x="92" y="240" fill="#8A6B56" font-size="24" font-family="PingFang SC, Microsoft YaHei, sans-serif">摘要卡片、主操作区与升级列表的界面占位图</text>
  <text x="900" y="394" fill="#6A4328" font-size="28" font-family="PingFang SC, Microsoft YaHei, sans-serif">逗猫羽毛棒</text>
  <text x="900" y="486" fill="#5C8E7C" font-size="28" font-family="PingFang SC, Microsoft YaHei, sans-serif">见习猫店员</text>
  <text x="900" y="579" fill="#6A4328" font-size="28" font-family="PingFang SC, Microsoft YaHei, sans-serif">舒适沙发区</text>
</svg>
