<svg xmlns="http://www.w3.org/2000/svg" viewBox="0 0 200 200" fill="none">
  <path
    d="M60 148C48 132 42 112 42 94C42 71 55 52 74 46L90 62L100 40L110 62L126 46C145 52 158 71 158 94C158 112 152 132 140 148C126 166 112 174 100 174C88 174 74 166 60 148Z"
    fill="#F3FFE9"
    fill-opacity="0.32"
    stroke="#4A2D1F"
    stroke-width="6"
    stroke-linecap="round"
    stroke-linejoin="round"
  />
  <path d="M69 99C74 91 82 91 87 99" stroke="#4A2D1F" stroke-width="6" stroke-linecap="round" />
  <path d="M113 99C118 91 126 91 131 99" stroke="#4A2D1F" stroke-width="6" stroke-linecap="round" />
  <path d="M100 110L95 117H105L100 110Z" fill="#4A2D1F" />
  <path d="M82 130C89 142 97 147 100 147C103 147 111 142 118 130" stroke="#4A2D1F" stroke-width="5.5" stroke-linecap="round" />
  <path d="M64 118H83M117 118H136" stroke="#4A2D1F" stroke-width="4" stroke-linecap="round" />
</svg>
