<svg xmlns="http://www.w3.org/2000/svg" viewBox="0 0 200 200" fill="none">
  <path
    d="M60 148C48 132 42 112 42 94C42 71 55 52 74 46L90 62L100 40L110 62L126 46C145 52 158 71 158 94C158 112 152 132 140 148C126 166 112 174 100 174C88 174 74 166 60 148Z"
    fill="#FFF4E1"
    fill-opacity="0.34"
    stroke="#4A2D1F"
    stroke-width="6"
    stroke-linecap="round"
    stroke-linejoin="round"
  />
  <circle cx="78" cy="98" r="6" fill="#4A2D1F" />
  <circle cx="122" cy="98" r="6" fill="#4A2D1F" />
  <path d="M100 110L95 117H105L100 110Z" fill="#4A2D1F" />
  <path d="M86 132C91 138 96 141 100 141C104 141 109 138 114 132" stroke="#4A2D1F" stroke-width="5" stroke-linecap="round" />
  <path d="M66 118H84M116 118H134" stroke="#4A2D1F" stroke-width="4" stroke-linecap="round" />
</svg>
